<svg xmlns="http://www.w3.org/2000/svg" xmlns:xlink="http://www.w3.org/1999/xlink" viewBox="0,0,256,256" width="50px" height="50px"><g fill="#000000" fill-rule="nonzero" stroke="none" stroke-width="1" stroke-linecap="butt" stroke-linejoin="miter" stroke-miterlimit="10" stroke-dasharray="" stroke-dashoffset="0" font-family="none" font-weight="none" font-size="none" text-anchor="none" style="mix-blend-mode: normal"><path d="M0,256v-256h256v256z" id="bgRectangle"></path></g><g fill="#45ff00" fill-rule="nonzero" stroke="none" stroke-width="1" stroke-linecap="butt" stroke-linejoin="miter" stroke-miterlimit="10" stroke-dasharray="" stroke-dashoffset="0" font-family="none" font-weight="none" font-size="none" text-anchor="none" style="mix-blend-mode: normal"><g transform="scale(5.12,5.12)"><path d="M4.94336,4c-0.53003,0.03012 -0.94416,0.46912 -0.94336,1v38.09375c0,1.56886 1.24636,2.90625 2.81836,2.90625h28.18164c0.2652,-0.00005 0.51952,-0.10543 0.70703,-0.29297l10,-10c0.18754,-0.18751 0.29292,-0.44183 0.29297,-0.70703v-30c0.00011,-0.37874 -0.21373,-0.72504 -0.5524,-0.89459c-0.33867,-0.16954 -0.74406,-0.13323 -1.0472,0.09381l-3.40039,2.55078l-3.40039,-2.55078c-0.35541,-0.26624 -0.84381,-0.26624 -1.19922,0l-3.40039,2.55078l-3.40039,-2.55078c-0.35541,-0.26624 -0.84381,-0.26624 -1.19922,0l-3.40039,2.55078l-3.40039,-2.55078c-0.35541,-0.26624 -0.84381,-0.26624 -1.19922,0l-3.40039,2.55078l-3.40039,-2.55078c-0.16123,-0.12099 -0.35526,-0.19043 -0.55664,-0.19922c-0.23077,-0.00979 -0.45782,0.0606 -0.64258,0.19922l-3.40039,2.55078l-3.40039,-2.55078c-0.16123,-0.12099 -0.35526,-0.19043 -0.55664,-0.19922c-0.03318,-0.00165 -0.06643,-0.00165 -0.09961,0zM13,6.25l3.40039,2.55078c0.35541,0.26624 0.84381,0.26624 1.19922,0l3.40039,-2.55078l3.40039,2.55078c0.35541,0.26624 0.84381,0.26624 1.19922,0l3.40039,-2.55078l3.40039,2.55078c0.35541,0.26624 0.84381,0.26624 1.19922,0l3.40039,-2.55078l3.40039,2.55078c0.35541,0.26624 0.84381,0.26624 1.19922,0l2.40039,-1.80078v27h-10v10h-27.18164c-0.428,0 -0.81836,-0.37711 -0.81836,-0.90625v-36.09375l2.40039,1.80078c0.35541,0.26624 0.84381,0.26624 1.19922,0zM8,11v1v5h34v-6zM10,13h30v2h-30zM8,21v1v13h15v-14zM26,21v2h15v-2zM10,23h11v10h-11zM13.19922,25l-1.19922,1.19922v3.5l1.19922,1.10156h4.60156l1.19922,-1.10156v-1.19922v-1.19922h-1.19922h-1.10156l-1.19922,1.19922h2.30078v1.19922h-3.5h-1.10156v-3.5zM13.19922,26.19922h1.10156v3.5l1.19922,-1.19922v-2.30078h3.5l-1.19922,-1.19922h-3.5zM26,25v2h15v-2zM26,29v2h15v-2zM26,34v2h6v-2zM36,36h6.58594l-6.58594,6.58594zM8,37v2h15v-2zM26,38v2h6v-2z"></path></g></g></svg>